<svg width="17" height="17" viewBox="0 0 17 17" fill="none" xmlns="http://www.w3.org/2000/svg">
<path d="M17 12.0615C17 15.1555 15.1555 17 12.0615 17H11.05C10.5825 17 10.2 16.6175 10.2 16.15V11.2455C10.2 11.016 10.387 10.8205 10.6165 10.8205L12.1125 10.795C12.2315 10.7865 12.3335 10.7015 12.359 10.5825L12.6565 8.959C12.682 8.806 12.563 8.6615 12.4015 8.6615L10.591 8.687C10.353 8.687 10.166 8.5 10.1575 8.2705L10.1235 6.188C10.1235 6.052 10.234 5.93301 10.3785 5.93301L12.4185 5.899C12.563 5.899 12.6735 5.78851 12.6735 5.64401L12.6395 3.60399C12.6395 3.45949 12.529 3.349 12.3845 3.349L10.0895 3.38301C8.6785 3.40851 7.5565 4.5645 7.582 5.9755L7.6245 8.313C7.633 8.551 7.446 8.738 7.208 8.7465L6.188 8.7635C6.0435 8.7635 5.93301 8.874 5.93301 9.0185L5.95851 10.6335C5.95851 10.778 6.069 10.8885 6.2135 10.8885L7.2335 10.8715C7.4715 10.8715 7.6585 11.0585 7.667 11.288L7.7435 16.133C7.752 16.609 7.3695 17 6.8935 17H4.9385C1.8445 17 0 15.1555 0 12.053V4.9385C0 1.8445 1.8445 0 4.9385 0H12.0615C15.1555 0 17 1.8445 17 4.9385V12.0615Z" fill="#7F0799"/>
</svg>

