<svg width="16" height="16" viewBox="0 0 16 16" fill="none" xmlns="http://www.w3.org/2000/svg">
<path fill-rule="evenodd" clip-rule="evenodd" d="M0 1.33666C0 0.982161 0.140828 0.642175 0.391501 0.391501C0.642175 0.140828 0.982161 0 1.33666 0H14.6633C14.8389 0 15.0127 0.0345761 15.1748 0.10175C15.337 0.168924 15.4843 0.267379 15.6085 0.391501C15.7326 0.515623 15.831 0.662976 15.8982 0.825143C15.9654 0.987318 16 1.16113 16 1.33666V14.6633C16 14.8389 15.9654 15.0127 15.8982 15.1748C15.831 15.337 15.7326 15.4843 15.6085 15.6085C15.4843 15.7326 15.337 15.831 15.1748 15.8982C15.0127 15.9654 14.8389 16 14.6633 16H1.33666C0.982161 16 0.642175 15.8591 0.391501 15.6085C0.140828 15.3578 0 15.0178 0 14.6633V1.33666ZM6.33332 6.09999H8.50002V7.18869C8.81233 6.56263 9.61265 5.99999 10.815 5.99999C13.1197 5.99999 13.6667 7.246 13.6667 9.53229V13.7667H11.3333V10.053C11.3333 8.75102 11.021 8.01665 10.2266 8.01665C9.125 8.01665 8.66665 8.80833 8.66665 10.053V13.7667H6.33332V6.09999ZM2.33333 13.6667H4.66666V5.99999H2.33333V13.6667ZM4.99999 3.49999C4.99999 3.69698 4.96119 3.89203 4.88581 4.07402C4.81043 4.256 4.69994 4.42136 4.56065 4.56065C4.42136 4.69994 4.256 4.81043 4.07402 4.88581C3.89203 4.96119 3.69698 4.99999 3.49999 4.99999C3.30302 4.99999 3.10796 4.96119 2.92597 4.88581C2.74398 4.81043 2.57863 4.69994 2.43933 4.56065C2.30005 4.42136 2.18956 4.256 2.11418 4.07402C2.0388 3.89203 2 3.69698 2 3.49999C2 3.10217 2.15803 2.72064 2.43933 2.43933C2.72064 2.15803 3.10217 2 3.49999 2C3.89782 2 4.27935 2.15803 4.56065 2.43933C4.84196 2.72064 4.99999 3.10217 4.99999 3.49999Z" fill="#7F0799"/>
</svg>
