<svg width="19" height="16" viewBox="0 0 19 16" fill="none" xmlns="http://www.w3.org/2000/svg">
<path d="M19 1.89444C18.3013 2.21524 17.5507 2.43199 16.7616 2.52997C17.5666 2.03056 18.1841 1.23811 18.4753 0.294787C17.7222 0.757776 16.888 1.09418 16.0001 1.27452C15.2889 0.490734 14.2764 0 13.1551 0C11.0029 0 9.25733 1.80861 9.25733 4.04032C9.25733 4.35591 9.29247 4.66284 9.35774 4.95936C6.11689 4.79029 3.24588 3.18197 1.32295 0.738702C0.98824 1.33695 0.79578 2.03056 0.79578 2.76927C0.79578 4.17037 1.48445 5.40761 2.5296 6.13157C1.89029 6.1099 1.28948 5.92869 0.763982 5.6261V5.67812C0.763982 7.63498 2.10702 9.26758 3.89104 9.63867C3.56302 9.73057 3.21911 9.77912 2.86431 9.77912C2.61327 9.77912 2.3681 9.75485 2.13045 9.70803C2.62666 11.312 4.06593 12.4808 5.77213 12.512C4.43746 13.5958 2.75636 14.2417 0.930502 14.2417C0.615871 14.2417 0.305424 14.2226 0 14.1853C1.72545 15.3324 3.77389 16 5.97463 16C13.1459 16 17.0662 9.84588 17.0662 4.50851C17.0662 4.33511 17.062 4.15997 17.0545 3.98656C17.816 3.41606 18.477 2.70597 18.9983 1.89704L19 1.89444Z" fill="#7F0799"/>
</svg>
